<?xml version="1.0" encoding="utf-8"?>
<svg width="51px" height="51px" viewBox="0 0 51 51" version="1.1" xmlns:xlink="http://www.w3.org/1999/xlink" xmlns="http://www.w3.org/2000/svg">
  <g id="x-circle-fill">
    <path d="M51 25.5C51 34.6103 46.1397 43.0285 38.25 47.5836C30.3603 52.1388 20.6397 52.1388 12.75 47.5836C4.86027 43.0285 0 34.6103 0 25.5C0 16.3897 4.86027 7.97149 12.75 3.41635C20.6397 -1.13878 30.3603 -1.13878 38.25 3.41635C46.1397 7.97149 51 16.3897 51 25.5L51 25.5ZM17.0655 14.8091C16.6623 14.406 16.0747 14.2485 15.5239 14.3962C14.9732 14.5438 14.5431 14.9741 14.3956 15.5248C14.2482 16.0756 14.4058 16.6632 14.8091 17.0663L23.246 25.5L14.8087 33.9341C14.4056 34.3373 14.2481 34.925 14.3958 35.4757C14.5434 36.0264 14.9737 36.4565 15.5244 36.604C16.0752 36.7514 16.6628 36.5938 17.0659 36.1905L25.4996 27.7536L33.9337 36.1909C34.3369 36.5941 34.9246 36.7515 35.4753 36.6039C36.026 36.4562 36.4561 36.026 36.6036 35.4752C36.751 34.9244 36.5934 34.3368 36.1901 33.9337L27.7532 25.5L36.1905 17.0659C36.5937 16.6627 36.7511 16.075 36.6035 15.5243C36.4558 14.9736 36.0256 14.5435 35.4748 14.396C34.924 14.2486 34.3364 14.4062 33.9333 14.8095L25.4996 23.2464L17.0655 14.8091L17.0655 14.8091Z" id="Shape" fill="#4CAF50" fill-rule="evenodd" stroke="none" />
  </g>
</svg>