<?xml version="1.0" encoding="utf-8"?>
<svg width="16px" height="15.999283px" viewBox="0 0 16 15.999283" version="1.1" xmlns:xlink="http://www.w3.org/1999/xlink" xmlns="http://www.w3.org/2000/svg">
  <defs>
    <path d="M0.000976507 0L16.0001 0L16.0001 15.9991L0.000976507 15.9991L0.000976507 0Z" id="path_1" />
    <clipPath id="mask_1">
      <use xlink:href="#path_1" />
    </clipPath>
  </defs>
  <g id="search">
    <path d="M0.000976507 0L16.0001 0L16.0001 15.9991L0.000976507 15.9991L0.000976507 0Z" id="Background" fill="#FFFFFF" fill-opacity="0" fill-rule="evenodd" stroke="none" />
    <path d="M11.7422 10.3434C13.7505 7.60303 13.3094 3.77834 10.7301 1.56704C8.15078 -0.644254 4.30359 -0.496024 1.90209 1.90719C-0.499414 4.31039 -0.644911 8.15769 1.56822 10.7354C3.78135 13.3131 7.60635 13.7515 10.3453 11.7413L10.3443 11.7413C10.3743 11.7813 10.4063 11.8193 10.4423 11.8563L14.2921 15.7061C14.6825 16.0968 15.3158 16.097 15.7065 15.7066C16.0972 15.3162 16.0975 14.6829 15.707 14.2922L11.8572 10.4424C11.8215 10.4062 11.783 10.3728 11.7422 10.3424L11.7422 10.3434ZM12.0003 6.49963C12.0003 8.46448 10.9521 10.2801 9.25045 11.2625C7.54884 12.2449 5.45237 12.2449 3.75076 11.2625C2.04915 10.2801 1.00092 8.46448 1.00092 6.49963C1.00092 4.53478 2.04915 2.71918 3.75076 1.73676C5.45237 0.754337 7.54884 0.754337 9.25045 1.73676C10.9521 2.71918 12.0003 4.53478 12.0003 6.49963L12.0003 6.49963Z" id="Shape" fill="#FFFFFF" fill-rule="evenodd" stroke="none" />
  </g>
</svg>