<?xml version="1.0" encoding="utf-8"?>
<svg width="34px" height="34px" viewBox="0 0 34 34" version="1.1" xmlns:xlink="http://www.w3.org/1999/xlink" xmlns="http://www.w3.org/2000/svg">
  <defs>
    <path d="M0 0L34 0L34 34L0 34L0 0Z" id="path_1" />
    <clipPath id="mask_1">
      <use xlink:href="#path_1" />
    </clipPath>
  </defs>
  <g id="trash3">
    <path d="M0 0L34 0L34 34L0 34L0 0Z" id="Background" fill="#FFFFFF" fill-opacity="0" fill-rule="evenodd" stroke="none" />
    <path d="M13.8125 2.125L20.1875 2.125C20.7743 2.125 21.25 2.6007 21.25 3.1875L21.25 5.3125L12.75 5.3125L12.75 3.1875C12.75 2.6007 13.2257 2.125 13.8125 2.125L13.8125 2.125ZM23.375 5.3125L23.375 3.1875C23.375 1.42709 21.9479 0 20.1875 0L13.8125 0C12.0521 0 10.625 1.42709 10.625 3.1875L10.625 5.3125L5.32525 5.3125C5.31816 5.31244 5.31108 5.31244 5.30399 5.3125L3.1875 5.3125C2.6007 5.3125 2.125 5.7882 2.125 6.375C2.125 6.9618 2.60069 7.4375 3.18749 7.4375L4.33075 7.4375L6.14337 30.09C6.32063 32.2986 8.16493 34.0005 10.3806 34L23.6194 34C25.8351 34.0005 27.6794 32.2986 27.8566 30.09L29.6692 7.4375L30.8125 7.4375C31.3993 7.4375 31.875 6.9618 31.875 6.375C31.875 5.7882 31.3993 5.3125 30.8125 5.3125L28.6981 5.3125C28.691 5.31244 28.684 5.31244 28.6769 5.3125L23.375 5.3125L23.375 5.3125ZM27.5357 7.4375L25.738 29.92C25.6494 31.0243 24.7272 31.8752 23.6194 31.875L10.3806 31.875C9.27276 31.8752 8.35061 31.0243 8.26198 29.92L6.46423 7.4375L27.5357 7.4375L27.5357 7.4375ZM11.6258 9.56249C12.2114 9.52864 12.7136 9.97569 12.7478 10.5612L13.8103 28.6237C13.8336 29.2018 13.39 29.6923 12.8124 29.727C12.2349 29.7617 11.7358 29.328 11.6896 28.7512L10.625 10.6887C10.6075 10.4068 10.7031 10.1296 10.8905 9.91824C11.0779 9.70691 11.3417 9.5789 11.6237 9.56249L11.6258 9.56249ZM22.3741 9.56249C22.6561 9.5789 22.9199 9.70691 23.1073 9.91824C23.2947 10.1296 23.3903 10.4068 23.3728 10.6887L22.3103 28.7512C22.2949 29.1356 22.073 29.4815 21.7301 29.6558C21.3872 29.83 20.9769 29.8054 20.6573 29.5913C20.3378 29.3772 20.1589 29.0071 20.1896 28.6237L21.2521 10.5612C21.2863 9.97569 21.7885 9.52864 22.3741 9.56249L22.3741 9.56249ZM17 9.5625C17.5868 9.5625 18.0625 10.0382 18.0625 10.625L18.0625 28.6875C18.0625 29.0671 17.86 29.4179 17.5313 29.6077C17.2025 29.7974 16.7975 29.7974 16.4688 29.6077C16.14 29.4179 15.9375 29.0671 15.9375 28.6875L15.9375 10.625C15.9375 10.0382 16.4132 9.5625 17 9.5625L17 9.5625Z" id="Shape" fill="#FBFBFB" fill-rule="evenodd" stroke="none" />
  </g>
</svg>