<?xml version="1.0" encoding="utf-8"?>
<svg width="25px" height="25px" viewBox="0 0 25 25" version="1.1" xmlns:xlink="http://www.w3.org/1999/xlink" xmlns="http://www.w3.org/2000/svg">
  <defs>
    <path d="M0 0L25 0L25 25L0 25L0 0Z" id="path_1" />
    <clipPath id="mask_1">
      <use xlink:href="#path_1" />
    </clipPath>
  </defs>
  <g id="pencil-square">
    <path d="M0 0L25 0L25 25L0 25L0 0Z" id="Background" fill="#FFFFFF" fill-opacity="0" fill-rule="evenodd" stroke="none" />
    <g clip-path="url(#mask_1)">
      <path d="M24.2219 3.03124C24.5259 3.33614 24.5259 3.82947 24.2219 4.13436L22.5922 5.76561L19.4672 2.64061L21.0969 1.00936C21.402 0.704378 21.8965 0.704378 22.2016 1.00936L24.2219 3.02968L24.2219 3.03124ZM21.4876 6.86874L18.3626 3.74374L7.71724 14.3906C7.63124 14.4766 7.56651 14.5815 7.52818 14.6969L6.27037 18.4687C6.22384 18.609 6.26043 18.7635 6.36491 18.868C6.46939 18.9724 6.62388 19.009 6.76412 18.9625L10.536 17.7047C10.6512 17.6668 10.7561 17.6026 10.8422 17.5172L21.4876 6.87031L21.4876 6.86874Z" id="Shape" fill="#FFFFFF" fill-rule="evenodd" stroke="none" />
      <path d="M1.5625 21.0938C1.5625 22.3882 2.61183 23.4375 3.90625 23.4375L21.0938 23.4375C22.3882 23.4375 23.4375 22.3882 23.4375 21.0938L23.4375 11.7188C23.4375 11.2873 23.0877 10.9375 22.6563 10.9375C22.2248 10.9375 21.875 11.2873 21.875 11.7187L21.875 21.0938C21.875 21.5252 21.5252 21.875 21.0938 21.875L3.90625 21.875C3.47478 21.875 3.125 21.5252 3.125 21.0938L3.125 3.90625C3.125 3.47478 3.47478 3.125 3.90625 3.125L14.0625 3.125C14.494 3.125 14.8437 2.77522 14.8438 2.34375C14.8438 1.91228 14.494 1.5625 14.0625 1.5625L3.90625 1.5625C2.61183 1.5625 1.5625 2.61183 1.5625 3.90625L1.5625 21.0938L1.5625 21.0938Z" id="Shape" fill="#FFFFFF" fill-rule="evenodd" stroke="none" />
    </g>
  </g>
</svg>