<?xml version="1.0" encoding="utf-8"?>
<svg width="32px" height="32px" viewBox="0 0 32 32" version="1.1" xmlns:xlink="http://www.w3.org/1999/xlink" xmlns="http://www.w3.org/2000/svg">
  <defs>
    <path d="M0 0L32 0L32 32L0 32L0 0Z" id="path_1" />
    <clipPath id="mask_1">
      <use xlink:href="#path_1" />
    </clipPath>
  </defs>
  <g id="x">
    <path d="M0 0L32 0L32 32L0 32L0 0Z" id="Background" fill="#FFFFFF" fill-opacity="0" fill-rule="evenodd" stroke="none" />
    <path d="M9.29208 9.29199C9.47969 9.1039 9.73442 8.9982 10.0001 8.9982C10.2657 8.9982 10.5205 9.1039 10.7081 9.29199L16.0001 14.586L21.2921 9.29199C21.683 8.90102 22.3169 8.90096 22.708 9.29187C23.099 9.68277 23.0992 10.3166 22.7083 10.7077L17.4141 16L22.7081 21.292C23.099 21.683 23.0991 22.3168 22.7082 22.7079C22.3173 23.0989 21.6834 23.0991 21.2923 22.7082L16.0001 17.414L10.7081 22.708C10.3171 23.099 9.68324 23.099 9.2922 22.7081C8.90116 22.3172 8.901 21.6833 9.29183 21.2922L14.5861 16L9.29208 10.708C9.104 10.5204 8.99829 10.2656 8.99829 9.99999C8.99829 9.73433 9.104 9.4796 9.29208 9.29199L9.29208 9.29199Z" id="Shape" fill="#FFFFFF" stroke="none" />
  </g>
</svg>